
<svg width="69px" height="99px" viewBox="0 0 69 99" version="1.1" xmlns="http://www.w3.org/2000/svg" xmlns:xlink="http://www.w3.org/1999/xlink">
    <!-- Generator: Sketch 45.1 (43504) - http://www.bohemiancoding.com/sketch -->
    <desc>Created with Sketch.</desc>
    <defs></defs>
    <g id="Page-1" stroke="none" stroke-width="1" fill="none" fill-rule="evenodd">
        <g id="judge-dredd" fill-rule="nonzero" fill="#FFFFFF">
            <path d="M31.281,80.166 C30.668,79.97 30.033,79.767 29.399,79.629 C27.295,79.177 25.114,81.048 24.872,81.263 C23.76,82.252 25.31,83.551 26.202,82.757 C26.724,82.291 28.081,81.384 28.975,81.584 C29.516,81.701 30.078,81.881 30.672,82.07 C33.732,83.049 34.718,83.101 37.943,82.07 C38.538,81.881 39.099,81.701 39.639,81.584 C40.58,81.378 41.993,82.388 42.413,82.757 C43.414,83.649 44.743,82.154 43.742,81.263 C43.5,81.048 41.312,79.178 39.215,79.629 C38.581,79.767 37.947,79.97 37.334,80.165 C34.692,81.011 34.136,81.077 31.281,80.166 Z M39.216,84.87 C37.186,85.31 31.446,85.314 29.399,84.87 C28.09,84.585 27.665,86.541 28.975,86.825 C31.458,87.363 37.44,87.303 39.64,86.825 C40.939,86.543 40.512,84.587 39.216,84.87 Z M34.307,0 C12.825,0 0,13.199 0,35.306 L0,62.694 C0,73.125 4.577,82.966 12.559,89.697 C12.872,89.962 13.322,89.978 13.678,89.795 L15.555,89.068 C15.9,88.934 16.128,88.621 16.175,88.261 C16.357,88.452 16.54,88.636 16.728,88.789 L20.749,92.06 L26.049,97.197 C27.213,98.146 28.4,98.999 30.104,98.999 L38.511,98.999 C40.214,98.999 41.402,98.146 42.631,97.14 L47.8,92.119 L51.888,88.79 C52.075,88.638 52.257,88.454 52.44,88.261 C52.486,88.621 52.714,88.935 53.059,89.069 L54.854,89.763 C55.021,89.876 55.216,89.933 55.412,89.933 C55.641,89.933 55.869,89.856 56.057,89.698 C64.037,82.968 68.615,73.126 68.615,62.695 L68.615,35.306 C68.613,13.199 55.789,0 34.307,0 Z M54.343,74.621 C53.791,75.615 53.216,76.597 52.611,77.556 C52.489,77.725 52.421,77.931 52.421,78.144 L52.421,84.671 C51.864,85.831 51.233,86.745 50.625,87.239 L46.474,90.626 L41.304,95.647 C40.203,96.544 39.469,97 38.512,97 L30.105,97 C29.147,97 28.414,96.545 27.378,95.705 L22.078,90.568 L17.992,87.239 C17.386,86.746 16.754,85.832 16.196,84.67 L16.196,78.144 C16.196,77.941 16.133,77.745 16.019,77.579 C15.409,76.614 14.829,75.626 14.274,74.624 L14.243,68.031 C23.683,73.695 43.23,74.715 54.373,68.032 L54.343,74.621 Z M10.618,61.761 C21.769,70.296 45.045,71.674 57.996,61.761 L57.996,62.773 C46.413,73.784 21.164,72.801 10.618,62.773 L10.618,61.761 Z M10.617,43.87 C10.617,43.751 10.596,43.633 10.554,43.521 C9.207,39.898 8.316,36.864 7.741,33.845 C13.169,41.477 19.772,47.187 28.227,51.604 L28.725,54.594 C28.963,56.019 30.281,57.135 31.725,57.135 L36.887,57.135 C38.332,57.135 39.65,56.019 39.887,54.593 L40.386,51.604 C48.841,47.187 55.446,41.477 60.873,33.845 C60.298,36.866 59.406,39.9 58.058,43.519 C58.017,43.631 57.995,43.749 57.995,43.868 L57.995,59.19 C47.849,67.849 22.794,69.586 10.617,59.189 L10.617,43.87 Z M55.234,87.766 L54.42,87.451 L54.42,78.437 C55.817,76.206 57.081,73.87 58.177,71.488 C58.247,71.336 58.277,71.173 58.267,71.013 L58.267,65.214 C58.751,64.797 59.23,64.368 59.695,63.913 C60.018,63.597 59.997,63.605 59.997,63.193 L59.997,44.05 C62.007,38.62 63.019,34.447 63.484,29.688 C63.593,28.581 62.164,28.211 61.637,29.067 C55.882,38.42 48.705,45.086 39.053,50.043 C38.943,50.096 38.532,50.325 38.483,50.856 L37.915,54.266 C37.839,54.721 37.35,55.136 36.888,55.136 L31.726,55.136 C31.264,55.136 30.774,54.721 30.698,54.266 C30.698,54.266 30.154,50.964 30.154,50.949 C30.154,50.512 29.875,50.142 29.485,50.005 C19.871,45.051 12.716,38.396 6.977,29.067 C6.444,28.199 5.024,28.603 5.13,29.688 C5.595,34.446 6.608,38.619 8.618,44.049 L8.618,63.194 C8.618,63.359 8.662,63.663 8.92,63.914 C9.385,64.368 9.863,64.798 10.347,65.215 L10.347,71.008 C10.337,71.169 10.366,71.334 10.437,71.488 C11.533,73.87 12.796,76.206 14.194,78.437 L14.194,87.451 L13.38,87.766 C8.275,83.298 4.721,77.453 3.064,71.019 C3.677,72.394 4.373,73.737 5.163,75.031 C5.599,75.776 7.16,75.75 7.16,74.471 L7.16,44.733 C7.16,44.592 7.131,44.457 7.077,44.335 C5.538,40.172 5.121,35.769 4.68,31.108 C4.68,31.108 4.556,29.734 4.558,29.719 C4.825,27.612 5.254,25.598 5.837,23.711 C11.343,32.254 17.237,38.446 23.813,42.603 C23.815,42.604 23.817,42.604 23.819,42.605 C23.822,42.607 23.824,42.61 23.828,42.612 L33.787,48.666 C34.057,48.83 34.465,48.885 34.826,48.666 L44.787,42.612 C44.79,42.61 44.792,42.608 44.795,42.606 C44.798,42.605 44.801,42.605 44.803,42.603 C51.38,38.445 57.274,32.254 62.779,23.711 C63.362,25.598 63.792,27.611 64.059,29.719 C64.061,29.733 63.937,31.108 63.937,31.108 C63.494,35.788 63.076,40.209 61.52,44.384 C61.479,44.496 61.457,44.614 61.457,44.733 L61.457,74.467 C61.457,75.273 62.652,76.128 63.454,75.028 C64.244,73.735 64.938,72.393 65.552,71.019 C63.892,77.453 60.339,83.299 55.234,87.766 Z M25.347,26.271 L25.347,19.622 L43.267,19.622 L43.267,26.271 L25.347,26.271 Z M43.266,28.271 L43.266,41.195 L38.624,44.016 L38.626,28.271 L43.266,28.271 Z M36.627,28.271 L36.625,45.231 L34.306,46.641 L31.988,45.232 L31.988,28.271 L36.627,28.271 Z M29.987,28.271 L29.987,44.016 L25.346,41.195 L25.346,28.271 L29.987,28.271 Z M66.613,56.641 C66.613,61.572 65.53,66.403 63.456,70.812 L63.456,44.914 C65.051,40.543 65.477,36.05 65.926,31.297 L66.08,29.688 C66.096,29.534 66.089,29.241 66.089,29.241 C65.701,26.319 64.94,23.566 63.975,21.057 C63.673,20.274 62.619,20.196 62.19,20.892 C56.961,29.389 51.41,35.62 45.266,39.89 L45.266,18.622 C45.266,18.07 44.819,17.622 44.266,17.622 L24.347,17.622 C23.795,17.622 23.347,18.07 23.347,18.622 L23.347,39.889 C17.205,35.62 11.655,29.389 6.425,20.892 C5.905,20.046 4.873,20.45 4.64,21.057 C3.679,23.556 2.914,26.294 2.526,29.201 C2.526,29.201 2.517,29.518 2.534,29.688 L2.688,31.297 C3.138,36.051 3.563,40.546 5.159,44.917 L5.159,70.814 C3.084,66.404 2.001,61.573 2.001,56.641 L2.001,35.306 C2.001,14.14 13.776,2 34.307,2 C54.837,2 66.613,14.14 66.613,35.306 L66.613,56.641 Z" id="Shape"></path>
        </g>
    </g>
</svg>